<svg width="150" height="131" viewBox="0 0 150 131" fill="none" xmlns="http://www.w3.org/2000/svg">
<path d="M48.1659 119.316L48.0264 112.819" stroke="#8D2525" stroke-opacity="0.74" stroke-width="3" stroke-linecap="round"/>
<path d="M47.6549 95.4939L47.4689 86.8314" stroke="#8D2525" stroke-opacity="0.74" stroke-width="3" stroke-linecap="round"/>
<path d="M50.4404 112.413L45.5984 112.56C44.9639 112.579 44.4379 112.08 44.4244 111.445L44.1164 97.0849C44.1024 96.4499 44.6059 95.9194 45.2409 95.9004L50.0829 95.7539C50.7174 95.7349 51.2434 96.2339 51.2569 96.8689L51.5649 111.229C51.5784 111.864 51.0749 112.394 50.4404 112.413Z" stroke="#8D2525" stroke-opacity="0.74" stroke-width="3"/>
<path d="M123.324 101.66L118.482 101.807C117.848 101.826 117.322 101.327 117.308 100.692L117 86.3315C116.986 85.6965 117.49 85.166 118.125 85.147L122.967 85.0005C123.601 84.9815 124.127 85.4805 124.141 86.1155L124.449 100.476C124.462 101.111 123.959 101.641 123.324 101.66Z" stroke="#8D2525" stroke-opacity="0.74" stroke-width="3"/>
<path d="M110.233 115.828L110 105" stroke="#3B9B0E" stroke-opacity="0.87" stroke-width="3" stroke-linecap="round"/>
<path d="M58.7473 87.4019L58.5613 78.7389" stroke="#3B9B0E" stroke-opacity="0.87" stroke-width="3" stroke-linecap="round"/>
<path d="M61.3933 97.8239L56.5518 97.9704C55.9168 97.9894 55.3913 97.4904 55.3778 96.8554L55.2088 88.9924C55.1953 88.3574 55.6988 87.8269 56.3338 87.8079L61.1753 87.6614C61.8103 87.6424 62.3358 88.1414 62.3498 88.7764L62.5183 96.6394C62.5318 97.2744 62.0283 97.8044 61.3933 97.8239Z" stroke="#3B9B0E" stroke-opacity="0.87" stroke-width="3"/>
<path d="M116.704 60.468L116.511 51.4995" stroke="#8D2525" stroke-opacity="0.74" stroke-width="3" stroke-linecap="round"/>
<path d="M119.644 77.9565L114.517 78.1115C113.882 78.1305 113.356 77.6315 113.343 76.9965L113.023 62.1015C113.009 61.4665 113.513 60.936 114.148 60.917L119.275 60.762C119.91 60.7425 120.436 61.242 120.449 61.877L120.769 76.772C120.783 77.407 120.279 77.937 119.644 77.9565Z" stroke="#8D2525" stroke-opacity="0.74" stroke-width="3"/>
<path d="M128.842 74.506L128.602 63.2955" stroke="#3B9B0E" stroke-opacity="0.87" stroke-width="3" stroke-linecap="round"/>
<path d="M128.361 52.085L128.169 43.1163" stroke="#3B9B0E" stroke-opacity="0.87" stroke-width="3" stroke-linecap="round"/>
<path d="M131.157 62.8465L126.03 63.0015C125.395 63.021 124.869 62.5215 124.856 61.8865L124.681 53.718C124.667 53.083 125.171 52.553 125.805 52.5335L130.933 52.3785C131.568 52.3595 132.093 52.8585 132.107 53.4935L132.282 61.662C132.296 62.297 131.792 62.8275 131.157 62.8465Z" stroke="#3B9B0E" stroke-opacity="0.87" stroke-width="3"/>
<path d="M67.6778 122.614L67.4808 113.449" stroke="#3B9B0E" stroke-opacity="0.87" stroke-width="3" stroke-linecap="round"/>
<path d="M67.2843 104.284L67.1268 96.9524" stroke="#3B9B0E" stroke-opacity="0.87" stroke-width="3" stroke-linecap="round"/>
<path d="M65.0698 113.355L69.8848 113.21C70.5198 113.19 71.0233 112.66 71.0098 112.025L70.8693 105.493C70.8558 104.858 70.3303 104.359 69.6953 104.378L64.8803 104.524C64.2453 104.543 63.7418 105.073 63.7553 105.708L63.8958 112.24C63.9093 112.875 64.4348 113.374 65.0698 113.355Z" stroke="#3B9B0E" stroke-opacity="0.87" stroke-width="3"/>
<path d="M86.6758 124.434L86.4958 116.028" stroke="#8D2525" stroke-opacity="0.74" stroke-width="3" stroke-linecap="round"/>
<path d="M86.0143 93.6139L85.7738 82.4064" stroke="#8D2525" stroke-opacity="0.74" stroke-width="3" stroke-linecap="round"/>
<path d="M89.6608 115.281L83.3023 115.473C82.6678 115.493 82.1418 114.993 82.1283 114.358L81.7243 95.5454C81.7108 94.9104 82.2143 94.3804 82.8493 94.3609L89.2078 94.1689C89.8423 94.1494 90.3683 94.6489 90.3818 95.2839L90.7858 114.097C90.7993 114.732 90.2958 115.262 89.6608 115.281Z" stroke="#8D2525" stroke-opacity="0.74" stroke-width="3"/>
<path d="M14.18 27.4055L14 19" stroke="#8D2525" stroke-opacity="0.74" stroke-width="3" stroke-linecap="round"/>
<path d="M17.9368 50.113L11.5783 50.305C10.9438 50.3245 10.4178 49.8251 10.4043 49.1901L10.0003 30.377C9.98677 29.742 10.4903 29.2121 11.1253 29.1926L17.4838 29.0006C18.1183 28.9811 18.6443 29.4805 18.6578 30.1155L19.0618 48.9286C19.0753 49.5636 18.5718 50.0935 17.9368 50.113Z" stroke="#8D2525" stroke-opacity="0.74" stroke-width="3"/>
<path d="M142.952 56.2655L142.772 47.86" stroke="#8D2525" stroke-opacity="0.74" stroke-width="3" stroke-linecap="round"/>
<path d="M145.937 47.113L139.578 47.305C138.944 47.3245 138.418 46.8251 138.404 46.1901L138 27.377C137.987 26.742 138.49 26.2121 139.125 26.1926L145.484 26.0006C146.118 25.9811 146.644 26.4805 146.658 27.1155L147.062 45.9286C147.075 46.5636 146.572 47.0935 145.937 47.113Z" stroke="#8D2525" stroke-opacity="0.74" stroke-width="3"/>
<path d="M108.383 75.968L108.143 64.7605" stroke="#3B9B0E" stroke-opacity="0.87" stroke-width="3" stroke-linecap="round"/>
<path d="M103.551 96.4149L97.1928 96.6069C96.5578 96.6264 96.0323 96.1269 96.0188 95.4919L95.7953 85.0844C95.7818 84.4494 96.2853 83.9194 96.9203 83.8999L103.278 83.7079C103.913 83.6884 104.439 84.1879 104.453 84.8229L104.676 95.2304C104.69 95.8654 104.186 96.3954 103.551 96.4149Z" stroke="#3B9B0E" stroke-opacity="0.87" stroke-width="3"/>
<path d="M27.8098 126.727L27.7191 122.502" stroke="#8D2525" stroke-opacity="0.74" stroke-width="3" stroke-linecap="round"/>
<path d="M27.4772 109.235L27.3563 103.601" stroke="#8D2525" stroke-opacity="0.74" stroke-width="3" stroke-linecap="round"/>
<path d="M29.8754 120.482L25.5647 120.613C24.9299 120.632 24.4042 120.133 24.3906 119.498L24.1961 110.439C24.1825 109.804 24.6861 109.273 25.3209 109.254L29.6316 109.124C30.2664 109.105 30.7921 109.604 30.8058 110.239L31.0002 119.298C31.0138 119.933 30.5102 120.463 29.8754 120.482Z" stroke="#8D2525" stroke-opacity="0.74" stroke-width="3"/>
<path d="M37.8707 117.969L37.7195 110.927" stroke="#3B9B0E" stroke-opacity="0.87" stroke-width="3" stroke-linecap="round"/>
<path d="M37.5684 103.885L37.4475 98.2514" stroke="#3B9B0E" stroke-opacity="0.87" stroke-width="3" stroke-linecap="round"/>
<path d="M39.8759 110.907L35.5652 111.038C34.9303 111.057 34.4047 110.558 34.391 109.923L34.2873 105.089C34.2737 104.454 34.7772 103.924 35.4121 103.904L39.7228 103.774C40.3576 103.755 40.8833 104.254 40.8969 104.889L41.0007 109.723C41.0143 110.358 40.5107 110.888 39.8759 110.907Z" stroke="#3B9B0E" stroke-opacity="0.87" stroke-width="3"/>
<path d="M70.9913 50.2964L71.1858 59.3174" stroke="#8D2525" stroke-opacity="0.74" stroke-width="3" stroke-linecap="round"/>
<path d="M71.7043 83.3729L71.9633 95.4004" stroke="#8D2525" stroke-opacity="0.74" stroke-width="3" stroke-linecap="round"/>
<path d="M68.7423 60.1449L73.6618 59.9969C74.2963 59.9779 74.8223 60.4769 74.8358 61.1119L75.2723 81.3609C75.2858 81.9959 74.7823 82.5259 74.1473 82.5449L69.2283 82.6934C68.5933 82.7124 68.0678 82.2129 68.0543 81.5779L67.6178 61.3294C67.6043 60.6944 68.1078 60.1639 68.7423 60.1449Z" stroke="#8D2525" stroke-opacity="0.74" stroke-width="3"/>
<path d="M59.8743 64.4104L60.1983 79.4449" stroke="#3B9B0E" stroke-opacity="0.87" stroke-width="3" stroke-linecap="round"/>
<path d="M107.125 90.1485L112.044 90.0006C112.679 89.9811 113.205 90.4805 113.218 91.1155L113.46 102.344C113.474 102.979 112.97 103.509 112.336 103.528L107.417 103.676C106.782 103.695 106.256 103.196 106.242 102.561L106 91.333C105.987 90.698 106.49 90.1675 107.125 90.1485Z" stroke="#3B9B0E" stroke-opacity="0.87" stroke-width="3"/>
<path d="M23.3771 48.8258L23.5668 57.6294" stroke="#8D2525" stroke-opacity="0.74" stroke-width="3" stroke-linecap="round"/>
<path d="M24.0726 81.1049L24.3256 92.8429" stroke="#8D2525" stroke-opacity="0.74" stroke-width="3" stroke-linecap="round"/>
<path d="M21.1227 58.4209L26.0418 58.2724C26.6766 58.2534 27.2024 58.7529 27.216 59.3879L27.6414 79.1294C27.6551 79.7644 27.1516 80.2944 26.5167 80.3134L21.5976 80.4619C20.9628 80.4809 20.437 79.9814 20.4234 79.3464L19.998 59.6049C19.9843 58.9699 20.4878 58.4399 21.1227 58.4209Z" stroke="#8D2525" stroke-opacity="0.74" stroke-width="3"/>
<path d="M20.5506 55.423L20.8667 70.0955" stroke="#3B9B0E" stroke-opacity="0.87" stroke-width="3" stroke-linecap="round"/>
<path d="M21.1829 84.768L21.4359 96.5055" stroke="#3B9B0E" stroke-opacity="0.87" stroke-width="3" stroke-linecap="round"/>
<path d="M135.301 117.009L135 103" stroke="#3B9B0E" stroke-opacity="0.87" stroke-width="3" stroke-linecap="round"/>
<path d="M135 74L135.259 86.0275" stroke="#3B9B0E" stroke-opacity="0.87" stroke-width="3" stroke-linecap="round"/>
<path d="M132.125 88.0719L137.044 87.9234C137.679 87.9044 138.205 88.4039 138.218 89.0389L138.454 99.9769C138.468 100.612 137.964 101.142 137.329 101.161L132.41 101.309C131.775 101.328 131.25 100.829 131.236 100.194L131 89.2559C130.987 88.6209 131.49 88.0909 132.125 88.0719Z" stroke="#3B9B0E" stroke-opacity="0.87" stroke-width="3"/>
<path d="M13.301 107.009L13 93" stroke="#3B9B0E" stroke-opacity="0.87" stroke-width="3" stroke-linecap="round"/>
<path d="M13 64L13.2595 76.0275" stroke="#3B9B0E" stroke-opacity="0.87" stroke-width="3" stroke-linecap="round"/>
<path d="M10.125 78.0719L15.0441 77.9234C15.6789 77.9044 16.2047 78.4039 16.2184 79.0389L16.4541 89.9769C16.4677 90.6119 15.9642 91.1419 15.3294 91.1614L10.4102 91.3094C9.77537 91.3284 9.24967 90.8294 9.23597 90.1944L9.00027 79.2559C8.98657 78.6209 9.49012 78.0909 10.125 78.0719Z" stroke="#3B9B0E" stroke-opacity="0.87" stroke-width="3"/>
<path d="M70.1044 18.4268L70.2999 27.5143" stroke="#8D2525" stroke-opacity="0.74" stroke-width="3" stroke-linecap="round"/>
<path d="M70.8223 51.7476L71.0833 63.8644" stroke="#8D2525" stroke-opacity="0.74" stroke-width="3" stroke-linecap="round"/>
<path d="M67.9553 28.3502L72.6779 28.208C73.3124 28.1888 73.8383 28.6881 73.8518 29.3231L74.2918 49.7273C74.3053 50.3623 73.8018 50.8926 73.1668 50.9117L68.4448 51.0539C67.8098 51.073 67.2844 50.5738 67.2704 49.9388L66.8309 29.5345C66.8169 28.8996 67.3208 28.3693 67.9553 28.3502Z" stroke="#8D2525" stroke-opacity="0.74" stroke-width="3"/>
<path d="M59.3823 32.6308L59.7088 47.7766" stroke="#3B9B0E" stroke-opacity="0.87" stroke-width="3" stroke-linecap="round"/>
<path d="M60.0353 62.9224L60.2963 75.0389" stroke="#3B9B0E" stroke-opacity="0.87" stroke-width="3" stroke-linecap="round"/>
<path d="M57.3643 48.6124L62.0863 48.4702C62.7213 48.451 63.2468 48.9503 63.2608 49.5853L63.5043 60.9019C63.5183 61.5369 63.0148 62.0674 62.3798 62.0864L57.6573 62.2289C57.0228 62.2479 56.4968 61.7484 56.4833 61.1134L56.2393 49.7967C56.2258 49.1618 56.7293 48.6315 57.3643 48.6124Z" stroke="#3B9B0E" stroke-opacity="0.87" stroke-width="3"/>
<path d="M48.4988 17.5L48.6788 25.8503" stroke="#8D2525" stroke-opacity="0.74" stroke-width="3" stroke-linecap="round"/>
<path d="M49.1588 48.118L49.3988 59.2519" stroke="#8D2525" stroke-opacity="0.74" stroke-width="3" stroke-linecap="round"/>
<path d="M45.2888 26.5948L52.0963 26.3898C52.7313 26.3706 53.2573 26.8699 53.2708 27.5049L53.6733 46.1892C53.6873 46.8241 53.1838 47.3544 52.5488 47.3735L45.7413 47.5786C45.1063 47.5977 44.5808 47.0984 44.5668 46.4634L44.1643 27.7791C44.1508 27.1442 44.6543 26.6139 45.2888 26.5948Z" stroke="#8D2525" stroke-opacity="0.74" stroke-width="3"/>
<path d="M33.5911 30.704L33.891 44.6213" stroke="#3B9B0E" stroke-opacity="0.87" stroke-width="3" stroke-linecap="round"/>
<path d="M34.1908 58.5384L34.4307 69.6724" stroke="#3B9B0E" stroke-opacity="0.87" stroke-width="3" stroke-linecap="round"/>
<path d="M30.5009 45.3657L37.3085 45.1606C37.9433 45.1415 38.469 45.6408 38.4827 46.2758L38.7054 56.6097C38.7191 57.2449 38.2155 57.7749 37.5807 57.7939L30.7732 57.9989C30.1383 58.0184 29.6126 57.5189 29.5989 56.884L29.3762 46.55C29.3625 45.915 29.8661 45.3848 30.5009 45.3657Z" stroke="#3B9B0E" stroke-opacity="0.87" stroke-width="3"/>
<path d="M89.6073 27.2066L89.7598 34.2992" stroke="#8D2525" stroke-opacity="0.74" stroke-width="3" stroke-linecap="round"/>
<path d="M90.1678 53.2125L90.3713 62.6694" stroke="#8D2525" stroke-opacity="0.74" stroke-width="3" stroke-linecap="round"/>
<path d="M87.3303 34.8049L92.2083 34.658C92.8433 34.6388 93.3688 35.1381 93.3828 35.7731L93.7223 51.5225C93.7358 52.1575 93.2323 52.6877 92.5973 52.7068L87.7193 52.8538C87.0843 52.8729 86.5588 52.3736 86.5448 51.7386L86.2053 35.9892C86.1918 35.3543 86.6953 34.824 87.3303 34.8049Z" stroke="#8D2525" stroke-opacity="0.74" stroke-width="3"/>
<path d="M78.5083 38.3746L78.7633 50.1955" stroke="#3B9B0E" stroke-opacity="0.87" stroke-width="3" stroke-linecap="round"/>
<path d="M79.0178 62.0164L79.2218 71.4729" stroke="#3B9B0E" stroke-opacity="0.87" stroke-width="3" stroke-linecap="round"/>
<path d="M76.3333 50.7012L81.2118 50.5543C81.8463 50.5351 82.3723 51.0344 82.3858 51.6694L82.5723 60.3264C82.5858 60.9614 82.0823 61.4914 81.4478 61.5104L76.5693 61.6574C75.9348 61.6769 75.4088 61.1774 75.3953 60.5424L75.2088 51.8855C75.1948 51.2506 75.6983 50.7203 76.3333 50.7012Z" stroke="#3B9B0E" stroke-opacity="0.87" stroke-width="3"/>
<path d="M117.047 11.2162L117.177 17.2914" stroke="#8D2525" stroke-opacity="0.74" stroke-width="3" stroke-linecap="round"/>
<path d="M117.526 33.492L117.701 41.5924" stroke="#8D2525" stroke-opacity="0.74" stroke-width="3" stroke-linecap="round"/>
<path d="M114.925 17.6221L119.441 17.4861C120.076 17.4669 120.602 17.9662 120.616 18.6012L120.904 31.9769C120.918 32.6119 120.414 33.1422 119.779 33.1613L115.263 33.2973C114.628 33.3164 114.102 32.8172 114.088 32.1822L113.8 18.8064C113.786 18.1715 114.29 17.6412 114.925 17.6221Z" stroke="#8D2525" stroke-opacity="0.74" stroke-width="3"/>
<path d="M106.635 20.8095L106.854 30.9349" stroke="#3B9B0E" stroke-opacity="0.87" stroke-width="3" stroke-linecap="round"/>
<path d="M107.072 41.0603L107.247 49.1606" stroke="#3B9B0E" stroke-opacity="0.87" stroke-width="3" stroke-linecap="round"/>
<path d="M96.3034 38.4505L100.82 38.3145C101.455 38.2953 101.981 38.7946 101.994 39.4296L102.152 46.7301C102.165 47.3651 101.662 47.8953 101.027 47.9145L96.5104 48.0505C95.8754 48.0696 95.3499 47.5704 95.3359 46.9354L95.1789 39.6348C95.1649 38.9999 95.6684 38.4696 96.3034 38.4505Z" stroke="#3B9B0E" stroke-opacity="0.87" stroke-width="3"/>
<path d="M133.524 33.8215C132.921 32.3154 131.766 31.1186 130.312 30.4931C129.597 30.1773 128.829 30.0097 128.052 30H98.3103C96.7328 30 95.2198 30.6494 94.1043 31.8053C92.9888 32.9612 92.3621 34.529 92.3621 36.1637C92.3621 37.7984 92.9888 39.3662 94.1043 40.5221C95.2198 41.678 96.7328 42.3274 98.3103 42.3274H113.716L80.4655 76.7824L60.8957 56.4422C60.3427 55.8645 59.6848 55.406 58.96 55.093C58.2351 54.7801 57.4577 54.619 56.6724 54.619C55.8872 54.619 55.1097 54.7801 54.3848 55.093C53.66 55.406 53.0021 55.8645 52.4491 56.4422L16.7595 93.4244C16.202 93.9974 15.7594 94.6791 15.4575 95.4302C15.1555 96.1813 15 96.9869 15 97.8006C15 98.6143 15.1555 99.4199 15.4575 100.171C15.7594 100.922 16.202 101.604 16.7595 102.177C17.3125 102.754 17.9703 103.213 18.6952 103.526C19.4201 103.839 20.1975 104 20.9828 104C21.768 104 22.5455 103.839 23.2703 103.526C23.9952 103.213 24.6531 102.754 25.206 102.177L56.6724 69.5092L76.2422 89.8494C76.7952 90.4271 77.4531 90.8857 78.178 91.1986C78.9028 91.5115 79.6803 91.6726 80.4655 91.6726C81.2508 91.6726 82.0282 91.5115 82.7531 91.1986C83.4779 90.8857 84.1358 90.4271 84.6888 89.8494L122.103 51.0182V66.9821C122.103 68.6168 122.73 70.1846 123.846 71.3405C124.961 72.4964 126.474 73.1458 128.052 73.1458C129.629 73.1458 131.142 72.4964 132.258 71.3405C133.373 70.1846 134 68.6168 134 66.9821V36.1637C133.991 35.3582 133.829 34.5625 133.524 33.8215Z" fill="#2ECC71"/>
<g filter="url(#filter0_d_21_2)">
<path d="M89.8275 115V79.635L92.6448 76.5527V45H99.5873V78.0939L96.6694 82.1495V115H89.8275ZM113.271 62.4392C110.655 61.3577 107.871 60.4384 104.92 59.6813C101.969 58.8702 99.1513 58.4647 96.4682 58.4647C92.846 58.4647 89.9617 59.1136 87.8152 60.4114C85.7358 61.7092 84.6961 63.4936 84.6961 65.7648C84.6961 67.387 85.434 68.82 86.9097 70.0637C88.3854 71.2534 90.2635 72.3078 92.5442 73.2271C94.8248 74.0923 97.2396 74.9305 99.7885 75.7416C102.002 76.3905 104.182 77.1746 106.329 78.0939C108.542 78.9591 110.521 80.0406 112.265 81.3384C114.009 82.6362 115.384 84.2584 116.39 86.2051C117.463 88.0977 118 90.45 118 93.2619C118 96.3442 117.027 99.1831 115.082 101.779C113.137 104.32 110.353 106.348 106.731 107.862C103.109 109.376 98.6817 110.133 93.4497 110.133C90.4312 110.133 87.4463 109.863 84.4949 109.322C81.6105 108.781 78.8604 108.051 76.2444 107.132C73.6283 106.159 71.2136 105.077 69 103.888L74.232 96.5064C75.8419 97.4797 77.6865 98.372 79.7659 99.1831C81.8453 99.9942 83.9918 100.643 86.2053 101.13C88.4189 101.562 90.4983 101.779 92.4435 101.779C94.5229 101.779 96.5688 101.508 98.5811 100.968C100.661 100.427 102.371 99.5346 103.713 98.2908C105.121 97.0471 105.825 95.3978 105.825 93.343C105.825 91.6667 105.222 90.2337 104.014 89.044C102.807 87.8544 101.231 86.827 99.2854 85.9618C97.4073 85.0425 95.3279 84.2314 93.0472 83.5284C90.7666 82.8254 88.4189 82.0413 86.0041 81.1761C83.6564 80.3109 81.4764 79.2565 79.4641 78.0127C77.4517 76.7149 75.8083 75.1468 74.5339 73.3082C73.2594 71.4697 72.6222 69.1985 72.6222 66.4948C72.6222 63.2503 73.5613 60.4384 75.4394 58.0591C77.3176 55.6798 79.9001 53.7872 83.1869 52.3812C86.5407 50.9753 90.3977 50.2182 94.7577 50.1101C99.9227 50.1101 104.316 50.6238 107.938 51.6512C111.628 52.6246 114.881 53.8142 117.698 55.2202L113.271 62.4392Z" fill="url(#paint0_linear_21_2)"/>
</g>
<g filter="url(#filter1_d_21_2)">
<path d="M25 92.6731V81.9038H34.1971C37.0438 81.9038 39.416 81.5192 41.3139 80.75C43.2117 79.9168 44.6715 78.8909 45.6934 77.6731C46.7883 76.4553 47.5547 75.1731 47.9927 73.8269C48.5036 72.4168 48.7591 71.1024 48.7591 69.8846C48.7591 68.7308 48.5401 67.4808 48.1022 66.1346C47.6642 64.7244 46.8978 63.4102 45.8029 62.1923C44.781 60.9102 43.3576 59.8525 41.5328 59.0192C39.708 58.1859 37.4088 57.7692 34.635 57.7692H25V47H69.8905V57.7692H43.0657L32.4453 50.0769C36.8248 50.0769 40.8394 50.4295 44.489 51.1346C48.1387 51.8398 51.2407 52.9615 53.7956 54.5C56.3505 55.9744 58.3214 57.9615 59.708 60.4615C61.1681 62.8975 61.8978 65.9102 61.8978 69.5C61.8978 72.2562 61.4232 75.013 60.4744 77.7692C59.5257 80.5255 57.9562 83.0255 55.7664 85.2692C53.6494 87.513 50.8394 89.3077 47.3358 90.6538C43.8321 92 39.4891 92.6731 34.3066 92.6731H25ZM53.5766 117L32.7737 88.8269L47.9927 88.5385L68.3577 117H53.5766ZM25.438 74.3077V64.9808H70V74.3077H25.438Z" fill="url(#paint1_linear_21_2)"/>
</g>
<defs>
<filter id="filter0_d_21_2" x="65" y="45" width="57" height="78" filterUnits="userSpaceOnUse" color-interpolation-filters="sRGB">
<feFlood flood-opacity="0" result="BackgroundImageFix"/>
<feColorMatrix in="SourceAlpha" type="matrix" values="0 0 0 0 0 0 0 0 0 0 0 0 0 0 0 0 0 0 127 0" result="hardAlpha"/>
<feOffset dy="4"/>
<feGaussianBlur stdDeviation="2"/>
<feComposite in2="hardAlpha" operator="out"/>
<feColorMatrix type="matrix" values="0 0 0 0 0 0 0 0 0 0 0 0 0 0 0 0 0 0 0.55 0"/>
<feBlend mode="normal" in2="BackgroundImageFix" result="effect1_dropShadow_21_2"/>
<feBlend mode="normal" in="SourceGraphic" in2="effect1_dropShadow_21_2" result="shape"/>
</filter>
<filter id="filter1_d_21_2" x="17.8" y="43.8" width="59.4" height="84.4" filterUnits="userSpaceOnUse" color-interpolation-filters="sRGB">
<feFlood flood-opacity="0" result="BackgroundImageFix"/>
<feColorMatrix in="SourceAlpha" type="matrix" values="0 0 0 0 0 0 0 0 0 0 0 0 0 0 0 0 0 0 127 0" result="hardAlpha"/>
<feOffset dy="4"/>
<feGaussianBlur stdDeviation="3.6"/>
<feComposite in2="hardAlpha" operator="out"/>
<feColorMatrix type="matrix" values="0 0 0 0 0 0 0 0 0 0 0 0 0 0 0 0 0 0 0.49 0"/>
<feBlend mode="normal" in2="BackgroundImageFix" result="effect1_dropShadow_21_2"/>
<feBlend mode="normal" in="SourceGraphic" in2="effect1_dropShadow_21_2" result="shape"/>
</filter>
<linearGradient id="paint0_linear_21_2" x1="93.0724" y1="48.6501" x2="93.0724" y2="128.073" gradientUnits="userSpaceOnUse">
<stop offset="0.055" stop-color="#F0C137"/>
<stop offset="1" stop-color="#ECB409"/>
</linearGradient>
<linearGradient id="paint1_linear_21_2" x1="45.8577" y1="44.8846" x2="45.5233" y2="129.26" gradientUnits="userSpaceOnUse">
<stop stop-color="#F0C137"/>
<stop offset="0.87" stop-color="#ECB409"/>
</linearGradient>
</defs>
</svg>
